# xmcd CD database file
#
# Track frame offsets:
#	150
#	38457
#	83232
#	110427
#	157084
#	206172
#	238647
#	254577
#
# Disc length: 3827 seconds
#
# Revision: 0
# Processed by: cddbd v1.5.1PL0 Copyright (c) Steve Scherf et al.
# Submitted via: CDex 1.50Beta7
#
DISCID=670ef108
DTITLE=Bud Freeman - California Session
DYEAR=1997
DGENRE=Jazz
TTITLE0=Strttin' With Some Barbecue
TTITLE1='S Wonderful
TTITLE2=Tea For Two
TTITLE3=Crazy Rhythm
TTITLE4=Sunday
TTITLE5=If I Had You
TTITLE6=Body And Soul
TTITLE7=Just A Closer Walk With Thee
EXTD=YEAR: 1997
EXTT0=
EXTT1=
EXTT2=
EXTT3=
EXTT4=
EXTT5=
EXTT6=
EXTT7=
PLAYORDER=
